# xmcd
#
# Track frame offsets: 
#        150
#        17050
#        35502
#        59462
#        78812
#        102037
#        123562
#        147112
#        171675
#        184805
#        216275
#        229575
#
# Disc length: 3382 seconds
#
# Revision: 0
# Processed by: cddbd v1.5.1PL0 Copyright (c) Steve Scherf et al.
# Submitted via: ExactAudioCopy v0.95a5
#
DISCID=a40d340c
DTITLE=Joe Moss Band - Joe Moss Band
DYEAR=1997
DGENRE=Blues
TTITLE0=Cold Hearted
TTITLE1=Magdalena
TTITLE2=Jealous
TTITLE3=Because Of You
TTITLE4=Second Gear
TTITLE5=Oh Sandra
TTITLE6=So Blue
TTITLE7=Communication
TTITLE8=Just Pickin'
TTITLE9=I Wanna Tell You
TTITLE10=Good Lovin' Groove
TTITLE11=You Got Me Cryin'
EXTD=
EXTT0=
EXTT1=
EXTT2=
EXTT3=
EXTT4=
EXTT5=
EXTT6=
EXTT7=
EXTT8=
EXTT9=
EXTT10=
EXTT11=
PLAYORDER=
